<svg xmlns="http://www.w3.org/2000/svg" version="1.1" xmlns:xlink="http://www.w3.org/1999/xlink" width="1000" height="1000"><g clip-path="url(#SvgjsClipPath1160)"><rect width="1000" height="1000" fill="#8d34ea"></rect><g transform="matrix(13.88888888888889,0,0,13.88888888888889,0,0)"><svg xmlns="http://www.w3.org/2000/svg" version="1.1" xmlns:xlink="http://www.w3.org/1999/xlink" width="72" height="72"><svg width="72" height="72" viewBox="0 0 72 72" fill="none" xmlns="http://www.w3.org/2000/svg">
<rect width="72" height="72" rx="28" fill="#943BF2" fill-opacity="0.96"></rect>
<rect x="2.5" y="2.5" width="67" height="67" rx="25.5" stroke="#8930E7" stroke-opacity="0.7" stroke-width="5"></rect>
<path d="M35.51 15.0403C36.2504 15.0403 37.0613 15 37.8017 15C45.0649 15 43.9366 26.5793 43.9366 29.5245C43.9366 34.1644 43.3725 40.8215 39.0005 41.6282C38.1895 41.6685 37.4139 41.6685 36.6029 41.7089C36.4972 41.7089 36.3561 41.6685 36.2504 41.6685C35.1926 41.7898 33.5708 41.5476 33.5002 42.7984C33.5002 46.7926 33.7823 50.8676 33.8881 54.8618C33.8881 57.0403 30.6796 56.879 29.7981 57C28.4584 57 28.2115 44.4526 28.0705 41.6282C28.0705 41.3863 28.0705 41.1441 28.0705 40.9021C28.0705 39.7723 28.1058 38.6831 28.1058 37.5533C28.1058 36.5044 28 35.4958 28 34.4466C28 33.2364 28.0353 32.0663 28.0353 30.8559C28.0353 30.4121 28.0353 29.928 28.0353 29.4438C28.0353 25.8127 28.2468 22.2219 28.3173 18.7522C28.3173 18.1066 28.2468 17.4611 28.2468 16.8156C28.2468 15.6859 31.5258 15.0403 33.465 15.0403C33.8528 15.0403 34.2407 15.0403 34.6285 15.0403C34.9106 15.0403 35.2279 15.0403 35.51 15.0403ZM32.9361 25.0461C32.9009 25.0461 32.9009 25.0461 32.8656 25.0461C33.0771 29.2018 32.7246 36.3431 34.0644 36.3431C36.7087 36.3431 39.0005 35.8184 39.0005 32.2277C39.0005 28.4352 39.2473 20.6484 36.4972 20.6484C35.6157 20.6484 34.8753 20.8502 34.0644 20.9712C32.5835 21.2133 32.9361 23.2306 32.9361 25.0461Z" fill="#21F2B2"></path>
</svg></svg></g></g><defs><clipPath id="SvgjsClipPath1160"><rect width="1000" height="1000" x="0" y="0" rx="300" ry="300"></rect></clipPath></defs></svg>