<svg width="163" height="14" viewBox="0 0 163 14" fill="none" xmlns="http://www.w3.org/2000/svg">
<path d="M-1.84774e-05 12.816V0.215978H5.45398C6.58198 0.215978 7.55398 0.401978 8.36998 0.773978C9.18598 1.13398 9.81598 1.65598 10.26 2.33998C10.704 3.02398 10.926 3.83998 10.926 4.78798C10.926 5.72398 10.704 6.53398 10.26 7.21798C9.81598 7.88998 9.18598 8.40598 8.36998 8.76598C7.55398 9.12598 6.58198 9.30598 5.45398 9.30598H1.61998L2.91598 8.02798V12.816H-1.84774e-05ZM8.00998 12.816L4.85998 8.24398H7.97398L11.16 12.816H8.00998ZM2.91598 8.35198L1.61998 6.98398H5.29198C6.19198 6.98398 6.86398 6.79198 7.30798 6.40798C7.75198 6.01198 7.97398 5.47198 7.97398 4.78798C7.97398 4.09198 7.75198 3.55198 7.30798 3.16798C6.86398 2.78398 6.19198 2.59198 5.29198 2.59198H1.61998L2.91598 1.20598V8.35198ZM11.5803 12.816L17.1963 0.215978H20.0763L25.7103 12.816H22.6503L18.0423 1.69198H19.1943L14.5683 12.816H11.5803ZM14.3883 10.116L15.1623 7.90198H21.6423L22.4343 10.116H14.3883ZM29.3761 12.816V7.66798L30.0421 9.43198L24.4981 0.215978H27.5941L31.8421 7.28998H30.0601L34.3261 0.215978H37.1881L31.6441 9.43198L32.2921 7.66798V12.816H29.3761ZM40.9927 12.816L36.8707 0.215978H39.8947L43.4767 11.376H41.9647L45.7087 0.215978H48.4087L52.0087 11.376H50.5507L54.2227 0.215978H57.0127L52.8907 12.816H49.7587L46.5727 3.02398H47.4007L44.1247 12.816H40.9927ZM64.62 13.032C63.624 13.032 62.7 12.87 61.848 12.546C61.008 12.222 60.276 11.766 59.652 11.178C59.04 10.59 58.56 9.89998 58.212 9.10798C57.876 8.31598 57.708 7.45198 57.708 6.51598C57.708 5.57998 57.876 4.71598 58.212 3.92398C58.56 3.13198 59.046 2.44198 59.67 1.85398C60.294 1.26598 61.026 0.809978 61.866 0.485978C62.706 0.161978 63.618 -2.12193e-05 64.602 -2.12193e-05C65.598 -2.12193e-05 66.51 0.161978 67.338 0.485978C68.178 0.809978 68.904 1.26598 69.516 1.85398C70.14 2.44198 70.626 3.13198 70.974 3.92398C71.322 4.70398 71.496 5.56798 71.496 6.51598C71.496 7.45198 71.322 8.32198 70.974 9.12598C70.626 9.91798 70.14 10.608 69.516 11.196C68.904 11.772 68.178 12.222 67.338 12.546C66.51 12.87 65.604 13.032 64.62 13.032ZM64.602 10.548C65.166 10.548 65.682 10.452 66.15 10.26C66.63 10.068 67.05 9.79198 67.41 9.43198C67.77 9.07198 68.046 8.64598 68.238 8.15398C68.442 7.66198 68.544 7.11598 68.544 6.51598C68.544 5.91598 68.442 5.36998 68.238 4.87798C68.046 4.38598 67.77 3.95998 67.41 3.59998C67.062 3.23998 66.648 2.96398 66.168 2.77198C65.688 2.57998 65.166 2.48398 64.602 2.48398C64.038 2.48398 63.516 2.57998 63.036 2.77198C62.568 2.96398 62.154 3.23998 61.794 3.59998C61.434 3.95998 61.152 4.38598 60.948 4.87798C60.756 5.36998 60.66 5.91598 60.66 6.51598C60.66 7.10398 60.756 7.64998 60.948 8.15398C61.152 8.64598 61.428 9.07198 61.776 9.43198C62.136 9.79198 62.556 10.068 63.036 10.26C63.516 10.452 64.038 10.548 64.602 10.548ZM79.8075 13.032C78.8115 13.032 77.8875 12.87 77.0355 12.546C76.1955 12.222 75.4635 11.766 74.8395 11.178C74.2275 10.59 73.7475 9.89998 73.3995 9.10798C73.0635 8.31598 72.8955 7.45198 72.8955 6.51598C72.8955 5.57998 73.0635 4.71598 73.3995 3.92398C73.7475 3.13198 74.2335 2.44198 74.8575 1.85398C75.4815 1.26598 76.2135 0.809978 77.0535 0.485978C77.8935 0.161978 78.8055 -2.12193e-05 79.7895 -2.12193e-05C80.7855 -2.12193e-05 81.6975 0.161978 82.5255 0.485978C83.3655 0.809978 84.0915 1.26598 84.7035 1.85398C85.3275 2.44198 85.8135 3.13198 86.1615 3.92398C86.5095 4.70398 86.6835 5.56798 86.6835 6.51598C86.6835 7.45198 86.5095 8.32198 86.1615 9.12598C85.8135 9.91798 85.3275 10.608 84.7035 11.196C84.0915 11.772 83.3655 12.222 82.5255 12.546C81.6975 12.87 80.7915 13.032 79.8075 13.032ZM79.7895 10.548C80.3535 10.548 80.8695 10.452 81.3375 10.26C81.8175 10.068 82.2375 9.79198 82.5975 9.43198C82.9575 9.07198 83.2335 8.64598 83.4255 8.15398C83.6295 7.66198 83.7315 7.11598 83.7315 6.51598C83.7315 5.91598 83.6295 5.36998 83.4255 4.87798C83.2335 4.38598 82.9575 3.95998 82.5975 3.59998C82.2495 3.23998 81.8355 2.96398 81.3555 2.77198C80.8755 2.57998 80.3535 2.48398 79.7895 2.48398C79.2255 2.48398 78.7035 2.57998 78.2235 2.77198C77.7555 2.96398 77.3415 3.23998 76.9815 3.59998C76.6215 3.95998 76.3395 4.38598 76.1355 4.87798C75.9435 5.36998 75.8475 5.91598 75.8475 6.51598C75.8475 7.10398 75.9435 7.64998 76.1355 8.15398C76.3395 8.64598 76.6155 9.07198 76.9635 9.43198C77.3235 9.79198 77.7435 10.068 78.2235 10.26C78.7035 10.452 79.2255 10.548 79.7895 10.548ZM88.875 12.816V0.215978H94.599C95.967 0.215978 97.173 0.479978 98.217 1.00798C99.261 1.52398 100.077 2.24998 100.665 3.18598C101.253 4.12198 101.547 5.23198 101.547 6.51598C101.547 7.78798 101.253 8.89798 100.665 9.84598C100.077 10.782 99.261 11.514 98.217 12.042C97.173 12.558 95.967 12.816 94.599 12.816H88.875ZM91.791 10.422H94.455C95.295 10.422 96.021 10.266 96.633 9.95398C97.257 9.62998 97.737 9.17398 98.073 8.58598C98.421 7.99798 98.595 7.30798 98.595 6.51598C98.595 5.71198 98.421 5.02198 98.073 4.44598C97.737 3.85798 97.257 3.40798 96.633 3.09598C96.021 2.77198 95.295 2.60998 94.455 2.60998H91.791V10.422ZM107.778 12.924C106.842 12.924 105.942 12.774 105.078 12.474C104.226 12.162 103.566 11.766 103.098 11.286L103.62 10.26C104.064 10.692 104.658 11.058 105.402 11.358C106.158 11.646 106.95 11.79 107.778 11.79C108.57 11.79 109.212 11.694 109.704 11.502C110.208 11.298 110.574 11.028 110.802 10.692C111.042 10.356 111.162 9.98398 111.162 9.57598C111.162 9.08398 111.018 8.68798 110.73 8.38798C110.454 8.08798 110.088 7.85398 109.632 7.68598C109.176 7.50598 108.672 7.34998 108.12 7.21798C107.568 7.08598 107.016 6.94798 106.464 6.80398C105.912 6.64798 105.402 6.44398 104.934 6.19198C104.478 5.93998 104.106 5.60998 103.818 5.20198C103.542 4.78198 103.404 4.23598 103.404 3.56398C103.404 2.93998 103.566 2.36998 103.89 1.85398C104.226 1.32598 104.736 0.905978 105.42 0.593979C106.104 0.269979 106.98 0.107978 108.048 0.107978C108.756 0.107978 109.458 0.209979 110.154 0.413979C110.85 0.605978 111.45 0.875978 111.954 1.22398L111.504 2.28598C110.964 1.92598 110.388 1.66198 109.776 1.49398C109.176 1.32598 108.594 1.24198 108.03 1.24198C107.274 1.24198 106.65 1.34398 106.158 1.54798C105.666 1.75198 105.3 2.02798 105.06 2.37598C104.832 2.71198 104.718 3.09598 104.718 3.52798C104.718 4.01998 104.856 4.41598 105.132 4.71598C105.42 5.01598 105.792 5.24998 106.248 5.41798C106.716 5.58598 107.226 5.73598 107.778 5.86798C108.33 5.99998 108.876 6.14398 109.416 6.29998C109.968 6.45598 110.472 6.65998 110.928 6.91198C111.396 7.15198 111.768 7.47598 112.044 7.88398C112.332 8.29198 112.476 8.82598 112.476 9.48598C112.476 10.098 112.308 10.668 111.972 11.196C111.636 11.712 111.12 12.132 110.424 12.456C109.74 12.768 108.858 12.924 107.778 12.924ZM117.651 12.816V1.36798H113.223V0.215978H123.411V1.36798H118.983V12.816H117.651ZM130.871 12.924C129.923 12.924 129.041 12.768 128.225 12.456C127.421 12.132 126.719 11.682 126.119 11.106C125.531 10.518 125.069 9.83998 124.733 9.07198C124.409 8.29198 124.247 7.43998 124.247 6.51598C124.247 5.59198 124.409 4.74598 124.733 3.97798C125.069 3.19798 125.531 2.51998 126.119 1.94398C126.719 1.35598 127.421 0.905978 128.225 0.593979C129.029 0.269979 129.911 0.107978 130.871 0.107978C131.819 0.107978 132.695 0.269979 133.499 0.593979C134.303 0.905978 134.999 1.34998 135.587 1.92598C136.187 2.50198 136.649 3.17998 136.973 3.95998C137.309 4.73998 137.477 5.59198 137.477 6.51598C137.477 7.43998 137.309 8.29198 136.973 9.07198C136.649 9.85198 136.187 10.53 135.587 11.106C134.999 11.682 134.303 12.132 133.499 12.456C132.695 12.768 131.819 12.924 130.871 12.924ZM130.871 11.736C131.627 11.736 132.323 11.61 132.959 11.358C133.607 11.094 134.165 10.728 134.633 10.26C135.113 9.77998 135.485 9.22798 135.749 8.60398C136.013 7.96798 136.145 7.27198 136.145 6.51598C136.145 5.75998 136.013 5.06998 135.749 4.44598C135.485 3.80998 135.113 3.25798 134.633 2.78998C134.165 2.30998 133.607 1.94398 132.959 1.69198C132.323 1.42798 131.627 1.29598 130.871 1.29598C130.115 1.29598 129.413 1.42798 128.765 1.69198C128.117 1.94398 127.553 2.30998 127.073 2.78998C126.605 3.25798 126.233 3.80998 125.957 4.44598C125.693 5.06998 125.561 5.75998 125.561 6.51598C125.561 7.25998 125.693 7.94998 125.957 8.58598C126.233 9.22198 126.605 9.77998 127.073 10.26C127.553 10.728 128.117 11.094 128.765 11.358C129.413 11.61 130.115 11.736 130.871 11.736ZM140.462 12.816V0.215978H145.178C146.246 0.215978 147.164 0.389978 147.932 0.737979C148.7 1.07398 149.288 1.56598 149.696 2.21398C150.116 2.84998 150.326 3.62398 150.326 4.53598C150.326 5.42398 150.116 6.19198 149.696 6.83998C149.288 7.47598 148.7 7.96798 147.932 8.31598C147.164 8.65198 146.246 8.81998 145.178 8.81998H141.2L141.794 8.20798V12.816H140.462ZM149.066 12.816L145.826 8.24398H147.266L150.524 12.816H149.066ZM141.794 8.31598L141.2 7.68598H145.142C146.402 7.68598 147.356 7.40998 148.004 6.85798C148.664 6.30598 148.994 5.53198 148.994 4.53598C148.994 3.52798 148.664 2.74798 148.004 2.19598C147.356 1.64398 146.402 1.36798 145.142 1.36798H141.2L141.794 0.737979V8.31598ZM154.658 5.84998H161.318V6.98398H154.658V5.84998ZM154.802 11.664H162.38V12.816H153.47V0.215978H162.11V1.36798H154.802V11.664Z" fill="#0D0D0D"/>
</svg>
