<svg xmlns="http://www.w3.org/2000/svg" fill="none" viewBox="0 0 695 213" height="213" width="695">
<path fill="#731AAE" d="M15.8115 206.254C17.8718 206.025 21.4391 205.968 22.9652 205.968C30.1003 205.739 35.6671 202.248 37.5587 200.531L49.5768 188.513C56.2154 181.874 57.112 177.353 56.7305 175.922L56.1582 151.6C67.8329 154.805 79.1452 148.548 83.3421 145.018C83.819 157.037 85.0589 183.648 86.2035 193.949C87.3481 204.251 94.6925 207.398 98.2217 207.684C105.948 208.352 124.375 209.859 136.279 210.546C148.183 211.233 153.066 204.155 154.02 200.531C158.122 201.198 167.984 202.133 174.623 200.531C181.261 198.928 182.158 190.706 181.776 186.796C186.355 187.025 189.979 185.747 191.219 185.079C190.304 187.139 190.838 190.897 191.219 192.519C191.887 195.571 195.34 201.847 203.81 202.534C212.28 203.221 218.403 201.485 220.406 200.531L253.313 174.778C253.218 176.494 253.084 182.618 253.313 193.377C253.542 204.136 261.23 206.063 265.045 205.681C266.953 205.204 272.084 204.308 277.349 204.537C282.614 204.766 286.22 202.725 287.364 201.675C289.463 199.577 295.205 193.892 301.386 187.94C307.566 181.989 308.348 171.344 307.967 166.766V129.853C307.967 125.503 316.361 115.45 320.557 110.967C323.037 108.582 328.684 102.096 331.431 95.229C334.178 88.3614 333.72 67.1866 333.148 57.4576C332.862 49.1594 332.232 30.0448 332.003 19.9725C331.717 7.38205 328.283 7.0959 325.136 4.52059C321.988 1.94527 309.684 1.65913 303.102 1.94527C297.837 2.17419 293.85 6.0467 292.515 7.95434L281.928 18.5418C283.53 4.11998 270.768 2.42218 264.186 3.376C263.614 3.28062 260.924 2.86092 254.744 1.94526C248.563 1.02959 244.729 4.99748 243.584 7.09589L231.28 18.2556C217.831 7.66818 210.963 6.80974 196.084 5.37901C184.18 4.23443 172.81 10.0527 168.614 13.105C166.782 13.3339 161.746 16.6341 159.457 18.2556C151.903 21.6893 143.91 32.8491 140.857 37.9997C140.285 35.2336 138.854 27.5267 137.71 18.8279C136.565 10.129 128.267 8.14509 124.261 8.24047C122.926 8.04971 118.023 7.78264 109.095 8.24047C100.167 8.69831 97.554 16.4433 97.3632 20.2586C91.6403 10.5296 84.4866 6.80974 79.6222 4.80672C74.7577 2.8037 68.1763 3.37597 47.0015 3.08983C30.0616 2.86091 19.913 9.0989 16.9561 12.2465C14.0947 15.4895 7.5133 22.7195 4.07954 25.6954C-0.212654 29.4153 0.931931 33.7075 0.931931 35.9966V42.578L0.0734866 71.7649V110.109C0.264251 111.825 0.531321 117.949 0.0734866 128.708C-0.384347 139.467 1.40884 167.338 2.36266 179.928C2.93495 183.934 4.48014 193.32 6.08256 198.814C8.08558 205.681 13.2362 206.54 15.8115 206.254Z"></path>
<path fill="#21F2B2" d="M42.3573 25.2704C45.8537 25.2704 49.683 25.1033 53.1794 25.1033C87.4772 25.1033 82.1494 73.058 82.1494 85.2555C82.1494 104.471 79.4855 132.041 58.8402 135.382C55.0108 135.549 51.348 135.549 47.5186 135.716C47.0191 135.716 46.3531 135.549 45.8537 135.549C40.8588 136.051 33.2001 135.048 32.8671 140.228C32.8671 156.77 34.1991 173.646 34.6986 190.188C34.6986 199.21 19.5476 198.542 15.3852 199.043C9.05847 199.043 7.89301 147.079 7.22703 135.382C7.22703 134.38 7.22703 133.377 7.22703 132.375C7.22703 127.696 7.39353 123.185 7.39353 118.506C7.39353 114.162 6.89404 109.985 6.89404 105.64C6.89404 100.628 7.06054 95.7821 7.06054 90.7694C7.06054 88.9315 7.06054 86.9264 7.06054 84.9213C7.06054 69.8833 8.0595 55.0123 8.39249 40.6426C8.39249 37.9692 8.0595 35.2958 8.0595 32.6223C8.0595 27.9438 23.5434 25.2704 32.7006 25.2704C34.5321 25.2704 36.3635 25.2704 38.1949 25.2704C39.5269 25.2704 41.0253 25.2704 42.3573 25.2704ZM30.2032 66.7086C30.0367 66.7086 30.0367 66.7086 29.8702 66.7086C30.8692 83.9188 29.2042 113.494 35.531 113.494C48.0181 113.494 58.8402 111.321 58.8402 96.4505C58.8402 80.7441 60.0057 48.4958 47.0191 48.4958C42.8568 48.4958 39.3604 49.3313 35.531 49.8326C28.5383 50.8351 30.2032 59.1896 30.2032 66.7086Z"></path>
<path fill="#21F2B2" d="M89.8159 113.995C89.8159 111.656 89.6494 109.316 89.6494 106.977C89.6494 93.9441 91.4808 81.4124 91.4808 68.5466C91.4808 60.1921 92.3133 47.6604 90.1489 41.6452C89.8159 40.6426 89.6494 39.473 89.6494 38.4705C89.6494 35.2958 89.9824 30.4502 94.3112 30.4502C101.304 30.4502 115.789 28.4451 115.789 33.792C116.122 43.3161 117.121 52.0047 117.121 60.5263C117.121 64.2022 116.954 67.7111 116.954 71.22C116.954 74.3947 117.121 77.9036 117.121 81.2453C117.121 95.2809 114.79 109.985 114.79 122.851C114.79 124.856 115.456 126.861 115.456 128.699C115.456 131.372 114.79 133.878 114.79 136.385C114.79 147.914 115.789 160.112 116.288 172.643C116.288 176.82 117.287 177.656 120.284 177.656C125.612 177.656 130.94 177.322 136.268 177.322C142.428 177.322 141.429 190.522 141.429 197.54C140.93 200.881 140.43 202.385 137.267 202.385C134.436 202.385 131.772 201.717 128.942 201.717C128.276 201.884 127.61 201.884 126.944 201.884C122.615 201.884 118.619 200.714 114.457 200.714C112.792 200.714 110.961 200.881 109.129 200.881C92.6463 197.372 94.4777 213.079 90.8149 149.251C90.8149 142.901 89.8159 136.385 89.8159 130.035C89.8159 124.856 89.8159 119.509 89.8159 113.995Z"></path>
<path fill="#21F2B2" d="M222.268 99.7923C222.268 108.648 222.435 117.17 222.435 125.524C222.435 146.911 220.603 170.304 217.773 191.023C217.274 193.864 216.275 195.033 213.444 195.033C204.454 195.033 198.127 196.537 198.127 188.183C198.127 185.008 198.626 181.666 198.46 178.491C197.96 172.977 197.794 167.463 197.794 161.95C197.794 159.276 197.794 156.603 197.794 153.929C197.794 152.258 197.794 150.42 197.794 148.749C197.794 143.904 198.293 139.058 198.293 134.046C198.293 129.868 197.794 128.197 194.797 128.197C183.975 128.197 170.489 127.195 170.489 133.377C170.988 148.415 171.155 163.286 172.487 178.157C172.986 180.998 174.651 183.504 174.651 186.345C174.651 192.527 173.486 194.031 167.991 194.031C160 194.031 148.845 194.699 148.845 188.851C148.845 181.332 148.179 173.813 148.179 166.461C148.179 162.117 149.011 157.772 149.011 153.428C149.011 148.917 148.678 144.238 148.678 139.727C149.011 127.028 149.011 113.995 149.344 101.129C149.344 97.6201 149.178 94.2783 149.178 90.7694C149.178 86.7593 149.843 82.5821 149.843 78.5719C149.843 76.5668 149.511 74.5618 149.511 72.5567C149.511 53.0072 149.344 27.4426 177.981 27.4426C203.122 27.4426 222.435 38.1363 222.435 69.0478C222.435 79.4074 222.601 89.5998 222.268 99.7923ZM199.292 75.3972C198.959 63.1997 200.125 47.3262 186.639 47.3262C169.49 47.3262 169.989 60.1921 169.989 85.5897C169.989 87.4277 170.322 89.5998 170.322 91.9391C170.322 94.7796 169.823 97.7872 169.823 100.461C169.823 103.134 171.321 103.635 173.486 103.635C177.648 103.635 181.977 103.134 186.306 103.134C188.97 103.134 191.467 103.301 193.798 103.301C200.624 103.301 198.293 92.9416 198.626 86.7593C198.793 82.9162 199.126 78.9061 199.292 75.3972Z"></path>
<path fill="#21F2B2" d="M310.313 58.3541C310.646 66.7086 311.145 75.2301 311.478 83.5846C311.478 102.466 313.309 118.84 289.334 122.851C284.173 123.686 285.671 131.038 285.671 136.051C285.671 137.554 285.838 139.058 285.838 140.562C285.838 146.243 285.505 151.924 285.505 157.605C285.505 159.944 285.671 162.451 285.671 164.79C285.671 177.322 287.669 197.038 279.844 197.038C279.012 197.038 278.346 197.038 277.513 197.038C273.184 197.038 269.022 198.041 264.693 198.041C261.863 198.041 260.697 197.205 260.697 193.696C260.697 193.028 260.697 192.527 260.697 191.859C260.697 169.97 258.533 147.58 258.533 125.524C257.201 117.337 236.056 126.694 232.06 101.129C230.395 90.9365 230.395 81.2454 230.562 70.7187C231.228 57.6857 232.393 45.4882 234.391 32.6223C234.891 29.4477 233.725 24.1008 237.888 24.1008C242.216 24.1008 245.546 25.4375 249.542 25.4375C250.042 25.4375 250.541 25.4375 251.041 25.4375C257.7 25.4375 259.698 25.2704 259.698 32.1211C259.698 33.6249 259.698 35.2958 259.698 36.7996C259.698 39.9743 259.698 43.149 259.698 46.3237C259.698 58.3541 258.866 70.7187 258.866 82.5821C258.866 93.4429 259.032 100.294 278.346 100.294C284.339 100.294 286.504 96.1163 287.17 90.1011C287.17 66.8757 284.506 48.3287 284.506 28.1109C284.506 25.7717 286.004 24.1008 288.502 24.1008C295.328 24.1008 309.647 22.4299 309.647 30.2831C310.479 39.1388 309.98 48.9971 310.479 58.3541C310.313 58.3541 310.313 58.3541 310.313 58.3541Z"></path>
<path fill="#731AAE" d="M408.659 148.51L409.517 172.26C409.994 174.549 409.632 180.387 404.367 185.423C399.102 190.459 394.352 195.342 392.635 197.155C392.063 198.013 390.517 199.845 388.915 200.302C386.912 200.875 380.617 202.592 372.318 202.592C364.02 202.592 358.87 202.305 357.153 190.573C355.436 178.841 354.291 159.097 354.291 147.365V110.739C354.482 105.016 354.749 92.0819 354.291 86.13C353.719 78.6902 355.15 38.6297 357.153 26.8977C357.153 24.8947 358.126 20.4881 362.017 18.8857L371.174 9.44283C373.081 6.29522 380.044 0 392.635 0C394.829 0 400.189 0.114458 404.081 0.572292C405.607 0.381528 409.403 0.114458 412.379 0.572292C415.355 1.03013 420.105 0.953821 422.108 0.858439C429.548 0.763057 446.43 3.94882 454.442 17.4549C454.252 12.972 458.105 3.94882 475.045 3.7199C491.985 3.49098 500.226 4.57834 502.229 5.15063C504.518 5.53216 509.783 6.35245 512.53 6.58136C515.868 7.4398 522.259 13.1627 521.114 29.1869L532.56 16.5965C535.899 13.5443 546.353 7.72595 561.461 8.87053C576.57 10.0151 587.596 15.8334 591.22 18.5995C593.986 20.8887 600.091 26.7261 602.38 31.7622L606.386 23.7501C607.435 21.8425 611.365 17.7411 618.69 16.5965C626.016 15.4519 630.327 14.5935 631.567 14.3073C635.191 14.0212 642.612 15.1085 643.299 21.7471C643.915 27.7026 643.656 29.8046 643.39 30.243L655.317 18.5995C656.652 16.4057 660.697 12.0754 666.191 12.3043C671.685 12.5332 676.873 11.2551 678.781 10.5874C681.929 9.53821 689.082 10.1868 692.516 21.1748C695.95 32.1628 695.091 54.3678 694.233 64.0968C692.993 72.5858 688.338 92.1963 679.639 102.726C683.836 105.016 692.63 114.745 694.233 135.347C695.835 155.95 692.993 178.651 691.371 187.426C690.131 190.096 686.221 196.582 680.498 201.161C674.775 205.739 672.772 208.028 672.486 208.601C671.246 209.364 667.221 210.833 661.04 210.604C654.859 210.375 649.435 210.604 644.73 210.604C640.024 210.604 635.16 207.17 628.864 207.17C622.569 207.17 624.986 210.222 620.407 210.604C615.829 210.985 605.585 211.805 601.235 212.034C598.565 212.225 592.765 210.317 590.934 201.161L582.636 204.595C580.919 205.167 573.822 209.717 563.178 205.453C552.463 201.161 541.59 202.305 530.271 204.595L499.94 205.453C493.835 206.121 479.051 207.399 468.75 207.17C458.448 206.941 453.775 207.074 452.725 207.17C449.673 206.884 443.111 202.878 441.28 189.143C439.448 175.408 438.99 151.371 438.99 141.07C434.889 144.885 423.081 151.715 408.659 148.51Z"></path>
<path fill="#21F2B2" d="M361.696 140.378C361.696 132.692 361.53 125.006 361.53 117.32C361.53 112.14 361.863 106.96 361.863 101.614C361.863 97.2692 361.53 93.092 361.53 88.7476C361.53 74.378 362.029 62.5146 362.695 48.9804C363.028 41.9626 364.527 34.4436 364.527 27.4258C366.025 20.0739 388.668 22.5803 389.667 22.5803C390.999 22.4132 392.331 22.4132 393.663 22.4132C396.66 22.5803 399.657 22.9144 402.654 22.9144C403.153 22.9144 403.653 22.9144 404.152 22.9144C423.133 22.9144 438.783 30.7676 438.783 57.5019C438.783 84.5704 442.945 112.14 412.81 120.495C403.153 123.168 385.338 119.158 385.338 125.507C385.838 133.862 386.337 143.052 386.337 151.573C386.337 152.242 386.337 153.077 386.337 153.745C386.337 164.94 387.503 176.135 387.503 187.33C387.503 191.508 387.503 194.348 381.676 194.348C380.51 194.348 379.345 194.014 378.179 194.014C374.516 194.014 371.02 195.351 367.357 195.351C361.197 195.351 361.863 141.214 361.863 140.378H361.696ZM386.171 68.0286C386.337 68.0286 386.504 68.0286 386.67 68.0286C386.171 76.8843 384.839 86.0742 384.839 94.9299C384.839 97.9376 386.171 98.4388 389.667 98.4388C391.665 98.4388 393.663 98.4388 395.661 98.4388C396.494 98.4388 397.492 98.4388 398.491 98.4388C414.308 98.4388 415.307 84.5704 415.307 73.5425C415.307 61.5121 413.642 45.4715 404.319 45.4715C386.67 45.4715 388.668 42.2968 386.171 68.0286Z"></path>
<path fill="#21F2B2" d="M469.557 75.7147C469.557 83.2337 469.391 90.7527 469.391 98.4388C469.391 100.945 470.889 101.279 472.554 101.279C478.881 101.279 486.04 100.611 492.533 100.11C498.361 100.11 498.028 109.467 498.028 114.646C498.028 121.497 498.361 125.507 493.033 125.507C486.373 125.507 479.88 126.343 473.22 126.343C467.726 126.343 469.557 136.368 469.557 142.55C470.39 152.409 467.559 176.47 473.386 176.47C480.879 176.47 488.87 173.128 495.863 173.128C499.526 173.128 501.025 173.796 501.025 177.973C501.025 183.32 502.523 188.5 502.523 193.847C502.523 199.027 493.033 199.194 487.206 199.194C485.707 199.194 484.042 198.525 482.544 198.525C478.881 198.525 475.384 199.695 471.888 199.695C469.89 199.695 467.892 199.194 465.894 199.194C461.898 199.194 457.736 199.695 453.74 199.695C446.414 199.695 446.414 151.072 446.414 146.728C446.414 142.216 446.248 137.872 446.248 133.36C446.248 130.52 446.581 127.679 446.581 124.672C446.581 117.654 445.748 110.135 445.748 102.282C445.748 99.6084 445.915 96.7679 445.915 94.0945C445.915 87.578 445.748 81.0615 445.748 74.7121C445.748 61.0108 446.747 48.312 446.747 35.2791C446.747 29.4309 445.915 25.5879 472.554 25.5879C479.713 25.5879 486.54 27.4258 493.699 28.0942C500.692 28.9297 498.694 39.4563 498.694 45.9728C498.694 49.8158 497.195 50.9855 494.864 50.9855C488.038 50.4842 480.213 49.8158 473.72 49.8158C467.226 49.8158 470.723 75.7147 469.557 75.7147Z"></path>
<path fill="#21F2B2" d="M585.847 103.284C585.847 112.14 586.013 120.662 586.013 129.016C586.013 150.404 584.182 173.796 581.351 194.515C580.852 197.356 579.853 198.525 577.023 198.525C568.032 198.525 561.705 200.029 561.705 191.675C561.705 188.5 562.205 185.158 562.038 181.983C561.539 176.47 561.372 170.956 561.372 165.442C561.372 162.768 561.372 160.095 561.372 157.421C561.372 155.75 561.372 153.912 561.372 152.242C561.372 147.396 561.872 142.55 561.872 137.538C561.872 133.361 561.372 131.69 558.375 131.69C547.553 131.69 534.067 130.687 534.067 136.869C534.567 151.907 534.733 166.778 536.065 181.649C536.565 184.49 538.229 186.996 538.229 189.837C538.229 196.019 537.064 197.523 531.57 197.523C523.578 197.523 512.423 198.191 512.423 192.343C512.423 184.824 511.757 177.305 511.757 169.953C511.757 165.609 512.589 161.264 512.589 156.92C512.589 152.409 512.256 147.73 512.256 143.219C512.589 130.52 512.589 117.487 512.922 104.621C512.922 101.112 512.756 97.7705 512.756 94.2616C512.756 90.2514 513.422 86.0742 513.422 82.0641C513.422 80.059 513.089 78.0539 513.089 76.0489C513.089 56.4994 512.922 30.9347 541.559 30.9347C566.7 30.9347 586.013 41.6284 586.013 72.54C586.013 82.8995 586.18 93.092 585.847 103.284ZM562.871 78.8894C562.538 66.6918 563.703 50.8184 550.217 50.8184C533.068 50.8184 533.568 63.6842 533.568 89.0818C533.568 90.9198 533.901 93.092 533.901 95.4312C533.901 98.2717 533.401 101.279 533.401 103.953C533.401 106.626 534.9 107.127 537.064 107.127C541.226 107.127 545.555 106.626 549.884 106.626C552.548 106.626 555.045 106.793 557.376 106.793C564.203 106.793 561.872 96.4338 562.205 90.2514C562.371 86.4084 562.704 82.3983 562.871 78.8894Z"></path>
<path fill="#21F2B2" d="M621.279 58.0032C621.279 72.7071 620.613 87.2438 620.28 101.446C620.28 103.284 620.28 105.958 622.444 105.958C641.758 105.958 646.253 91.254 646.253 77.3856C646.253 74.7121 646.086 71.8716 646.086 69.0311C646.086 59.3399 647.751 49.6487 647.751 39.9576C647.751 39.2892 647.751 38.6208 647.751 37.9525C647.751 32.2714 656.409 35.112 663.735 33.1069C664.734 32.7727 665.566 32.6056 666.232 32.6056C673.058 32.6056 673.058 58.1703 673.058 63.6842C673.058 83.9021 668.563 100.945 656.243 117.32C655.91 117.821 655.743 118.322 655.743 118.824C655.743 119.993 664.068 124.672 666.732 129.852C672.226 140.545 672.559 152.743 672.559 164.439C672.559 175.801 671.06 187.163 669.895 198.692C669.396 201.533 668.23 203.204 665.566 203.204C652.746 203.204 646.586 205.376 646.586 192.844C644.921 170.956 647.085 130.52 624.442 130.52C622.444 130.52 621.778 131.523 621.778 133.528C621.778 137.705 622.444 141.548 622.444 145.558C622.444 149.735 621.945 153.912 621.945 158.09C621.945 160.596 622.444 163.269 622.444 165.776C622.444 170.454 622.278 175.3 622.278 179.811C622.278 185.492 622.444 191.173 622.444 196.854C622.444 201.199 620.946 202.87 617.116 202.87C616.617 202.87 616.117 202.703 615.618 202.703C610.956 202.703 606.294 204.541 601.466 204.541C595.639 204.039 596.804 175.634 596.804 175.133C596.804 172.627 596.971 169.953 596.971 167.447C596.971 161.097 596.638 154.748 596.638 148.399C596.638 144.388 597.137 140.044 597.137 135.7C597.137 133.193 596.804 130.854 596.804 128.348C596.804 122.5 596.971 116.652 596.971 110.803C596.971 104.955 596.971 98.9401 596.971 93.092C596.971 87.2438 597.137 81.3957 597.137 75.7147C597.137 72.7071 596.804 69.6995 596.804 66.6918C596.804 59.507 597.47 52.4893 597.803 45.3044C598.136 37.117 603.963 39.7905 616.95 36.4487C617.616 36.2816 618.282 36.1145 618.948 36.1145C620.946 36.1145 621.612 38.4537 621.612 40.1246C621.279 46.1399 621.279 51.988 621.279 58.0032Z"></path>
</svg>
